<svg width="232" height="232" viewBox="0 0 232 232" fill="none" xmlns="http://www.w3.org/2000/svg">
<path fill-rule="evenodd" clip-rule="evenodd" d="M224 116C224 175.647 175.647 224 116 224C56.3531 224 8 175.647 8 116C8 56.3531 56.3531 8 116 8C175.647 8 224 56.3531 224 116Z" fill="#E8E8E8"/>
<path fill-rule="evenodd" clip-rule="evenodd" d="M171.195 166.365H61.006C48.3161 166.365 38.0289 156.077 38.0289 143.388V105.126C38.0289 80.0558 58.3526 59.7321 83.4231 59.7321H171.195C183.885 59.7321 194.172 70.0192 194.172 82.7091V143.388C194.172 156.077 183.885 166.365 171.195 166.365Z" fill="#D6D6D6"/>
<path fill-rule="evenodd" clip-rule="evenodd" d="M109.321 111.437H185.742L147.532 45.4366L109.321 111.437Z" fill="#BBBBBB"/>
<path fill-rule="evenodd" clip-rule="evenodd" d="M147.532 94.0682C149.68 94.0682 151.422 95.8102 151.422 97.9587C151.422 100.108 149.68 101.849 147.532 101.849C145.383 101.849 143.641 100.108 143.641 97.9587C143.641 95.8102 145.383 94.0682 147.532 94.0682ZM150.137 69.7524V89.7261H144.926V69.7524H150.137Z" fill="white"/>
<path fill-rule="evenodd" clip-rule="evenodd" d="M48.2451 104.649C48.2451 85.4844 63.7809 69.9487 82.9456 69.9487C102.11 69.9487 117.645 85.4844 117.645 104.649C117.645 123.813 102.11 139.349 82.9456 139.349C63.7809 139.349 48.2451 123.813 48.2451 104.649Z" fill="white"/>
<path d="M95.7999 66.6877L80.7999 93.4399L85.6484 96.1584L100.648 69.4064L95.7999 66.6877Z" fill="#D6D6D6"/>
<path d="M106.171 72.5028L87.3686 106.036L92.2174 108.755L111.02 75.2216L106.171 72.5028Z" fill="#D6D6D6"/>
<path fill-rule="evenodd" clip-rule="evenodd" d="M51.8667 104.649C51.8667 87.5119 65.8085 73.5699 82.9455 73.5699C100.082 73.5699 114.024 87.5119 114.024 104.649C114.024 121.786 100.082 135.728 82.9455 135.728C65.8085 135.728 51.8667 121.786 51.8667 104.649ZM38.0287 104.649C38.0287 129.416 58.1782 149.566 82.9455 149.566C92.838 149.566 101.994 146.351 109.423 140.912L125.59 157.078L135.375 147.293L119.208 131.127C124.647 123.697 127.862 114.541 127.862 104.649C127.862 79.8816 107.713 59.7321 82.9455 59.7321C58.1782 59.7321 38.0287 79.8816 38.0287 104.649Z" fill="#AAAAAA"/>
<path fill-rule="evenodd" clip-rule="evenodd" d="M150.392 188.404L119.584 157.596L135.892 141.288L166.7 172.096L150.392 188.404Z" fill="#CCCCCC"/>
</svg>
